<svg data-v-423bf9ae="" xmlns="http://www.w3.org/2000/svg" viewBox="0 0 372 90" class="iconLeft"><!----><!----><!----><g data-v-423bf9ae="" id="9dcca4c8-46c0-4615-a886-722bc7d7a8f9" fill="#F1DEDA" transform="matrix(3.996483146462111,0,0,3.996483146462111,121.9437538543403,18.20997552757408)"><path d="M6.30 10.58L6.30 10.58Q5.31 10.01 4.54 9.16L4.54 9.16L4.54 9.16Q3.77 8.30 3.29 7.21L3.29 7.21L3.23 7.80L3.23 7.80Q3.09 9.16 2.96 9.83L2.96 9.83L2.96 9.83Q2.83 10.50 2.59 10.50L2.59 10.50L2.59 10.50Q2.27 10.50 1.83 10.26L1.83 10.26L1.83 10.26Q1.39 10.02 1.06 9.70L1.06 9.70L1.06 9.70Q0.73 9.38 0.73 9.17L0.73 9.17L0.73 9.17Q0.73 8.81 1.41 5.46L1.41 5.46L1.41 5.46Q1.50 5.07 1.69 4.12L1.69 4.12L1.69 4.12Q1.88 3.18 1.95 2.76L1.95 2.76L1.43 2.84L1.43 2.84Q0.99 2.44 0.99 1.82L0.99 1.82L0.99 1.82Q0.99 1.39 1.23 0.92L1.23 0.92L1.23 0.92Q2.37 0.63 3.53 0.63L3.53 0.63L3.53 0.63Q4.76 0.63 5.82 0.95L5.82 0.95L5.82 0.95Q6.87 1.27 7.53 1.94L7.53 1.94L7.53 1.94Q8.19 2.60 8.19 3.60L8.19 3.60L8.19 3.60Q8.19 4.76 7.28 5.59L7.28 5.59L7.28 5.59Q6.37 6.43 4.61 6.71L4.61 6.71L4.61 6.71Q5.31 7.36 6.01 7.76L6.01 7.76L6.01 7.76Q6.72 8.16 7.80 8.53L7.80 8.53L7.80 8.53Q7.85 8.75 7.85 9.02L7.85 9.02L7.85 9.02Q7.85 9.66 7.46 10.08L7.46 10.08L7.46 10.08Q7.07 10.50 6.30 10.58L6.30 10.58ZM3.56 5.35L3.56 5.35Q4.66 5.24 5.37 4.76L5.37 4.76L5.37 4.76Q6.08 4.28 6.08 3.63L6.08 3.63L6.08 3.63Q6.08 3.21 5.66 2.92L5.66 2.92L5.66 2.92Q5.25 2.63 4.55 2.63L4.55 2.63L4.55 2.63Q4.30 2.63 4.00 2.67L4.00 2.67L4.00 2.67Q3.78 3.96 3.79 3.91L3.79 3.91L3.79 3.91Q3.67 4.59 3.56 5.35L3.56 5.35ZM11.73 10.50L11.73 10.50Q11.06 10.50 10.33 10.06L10.33 10.06L10.33 10.06Q9.60 9.62 9.13 8.97L9.13 8.97L9.13 8.97Q8.65 8.33 8.65 7.76L8.65 7.76L8.65 7.76Q8.65 6.73 9.14 5.52L9.14 5.52L9.14 5.52Q9.62 4.30 10.47 3.45L10.47 3.45L10.47 3.45Q11.33 2.60 12.40 2.60L12.40 2.60L12.40 2.60Q13.17 2.60 13.80 2.94L13.80 2.94L13.80 2.94Q14.42 3.28 14.77 3.78L14.77 3.78L14.77 3.78Q15.12 4.28 15.12 4.76L15.12 4.76L15.12 4.76Q15.12 5.35 14.59 5.92L14.59 5.92L14.59 5.92Q14.06 6.48 13.10 6.91L13.10 6.91L13.10 6.91Q12.15 7.34 10.93 7.52L10.93 7.52L10.93 7.52Q10.92 7.69 10.92 8.02L10.92 8.02L10.92 8.02Q10.92 8.44 10.95 8.65L10.95 8.65L10.95 8.65Q11.65 8.58 12.33 8.27L12.33 8.27L12.33 8.27Q13.02 7.97 13.83 7.41L13.83 7.41L13.83 7.41Q14.38 7.57 14.66 7.94L14.66 7.94L14.66 7.94Q14.94 8.30 14.94 8.81L14.94 8.81L14.94 8.81Q14.94 9.23 14.43 9.63L14.43 9.63L14.43 9.63Q13.92 10.02 13.16 10.26L13.16 10.26L13.16 10.26Q12.40 10.50 11.73 10.50L11.73 10.50ZM11.14 6.47L11.14 6.47Q12.00 6.16 12.57 5.68L12.57 5.68L12.57 5.68Q13.15 5.21 13.15 4.87L13.15 4.87L13.15 4.87Q13.15 4.48 12.60 4.34L12.60 4.34L12.60 4.34Q12.07 4.73 11.70 5.28L11.70 5.28L11.70 5.28Q11.33 5.82 11.14 6.47L11.14 6.47ZM18.23 8.65L18.23 8.65Q19.54 8.60 20.66 7.29L20.66 7.29L20.66 7.29Q21.35 7.42 21.76 7.81L21.76 7.81L21.76 7.81Q22.18 8.20 22.18 8.81L22.18 8.81L22.18 8.81Q22.18 9.24 21.68 9.63L21.68 9.63L21.68 9.63Q21.18 10.02 20.44 10.26L20.44 10.26L20.44 10.26Q19.70 10.50 19.01 10.50L19.01 10.50L19.01 10.50Q18.34 10.50 17.61 10.06L17.61 10.06L17.61 10.06Q16.88 9.62 16.41 8.97L16.41 8.97L16.41 8.97Q15.93 8.33 15.93 7.76L15.93 7.76L15.93 7.76Q15.93 6.65 16.44 5.44L16.44 5.44L16.44 5.44Q16.95 4.23 17.86 3.42L17.86 3.42L17.86 3.42Q18.77 2.60 19.91 2.60L19.91 2.60L19.91 2.60Q20.61 2.60 21.24 2.86L21.24 2.86L21.24 2.86Q21.87 3.11 22.25 3.53L22.25 3.53L22.25 3.53Q22.62 3.95 22.62 4.40L22.62 4.40L22.62 4.40Q22.62 4.83 22.25 5.17L22.25 5.17L22.25 5.17Q21.87 5.52 21.25 5.52L21.25 5.52L21.25 5.52Q21.06 5.52 20.85 5.47L20.85 5.47L20.85 5.47Q20.50 4.62 20.08 4.27L20.08 4.27L20.08 4.27Q19.15 4.87 18.68 5.95L18.68 5.95L18.68 5.95Q18.20 7.03 18.20 8.15L18.20 8.15L18.20 8.15Q18.20 8.32 18.23 8.65L18.23 8.65ZM26.07 2.20L26.07 2.20Q25.80 2.20 25.43 1.98L25.43 1.98L25.43 1.98Q25.06 1.76 24.79 1.46L24.79 1.46L24.79 1.46Q24.53 1.16 24.53 0.92L24.53 0.92L24.53 0.92Q24.53 0.55 24.72 0.17L24.72 0.17L24.72 0.17Q24.92-0.21 25.21-0.38L25.21-0.38L25.21-0.38Q25.35-0.45 25.66-0.45L25.66-0.45L25.66-0.45Q26.17-0.45 26.68-0.22L26.68-0.22L26.68-0.22Q27.19 0 27.30 0.34L27.30 0.34L27.30 0.34Q27.33 0.41 27.33 0.55L27.33 0.55L27.33 0.55Q27.33 0.87 27.13 1.26L27.13 1.26L27.13 1.26Q26.94 1.65 26.64 1.92L26.64 1.92L26.64 1.92Q26.35 2.20 26.07 2.20L26.07 2.20ZM25.12 10.50L25.12 10.50Q24.75 10.50 24.30 10.26L24.30 10.26L24.30 10.26Q23.84 10.01 23.51 9.68L23.51 9.68L23.51 9.68Q23.18 9.35 23.18 9.13L23.18 9.13L23.18 9.13Q23.18 8.88 23.37 8.39L23.37 8.39L23.37 8.39Q23.55 7.90 23.91 7.04L23.91 7.04L23.91 7.04Q24.19 6.38 24.33 6.01L24.33 6.01L24.33 6.01Q24.47 5.64 24.47 5.49L24.47 5.49L24.47 5.49Q24.47 5.38 24.34 5.24L24.34 5.24L24.34 5.24Q24.21 5.11 23.94 4.91L23.94 4.91L23.94 4.91Q23.63 4.68 23.48 4.54L23.48 4.54L23.48 4.54Q23.34 4.40 23.34 4.24L23.34 4.24L23.34 4.24Q23.34 3.95 23.61 3.56L23.61 3.56L23.61 3.56Q23.88 3.16 24.25 2.88L24.25 2.88L24.25 2.88Q24.63 2.60 24.89 2.60L24.89 2.60L24.89 2.60Q25.21 2.60 25.60 2.88L25.60 2.88L25.60 2.88Q25.98 3.16 26.26 3.55L26.26 3.55L26.26 3.55Q26.53 3.93 26.53 4.17L26.53 4.17L26.53 4.17Q26.53 4.79 26.21 5.93L26.21 5.93L26.21 5.93Q25.90 7.07 25.41 8.39L25.41 8.39L25.41 8.39Q25.75 8.23 26.00 8.06L26.00 8.06L26.00 8.06Q26.25 7.90 26.70 7.55L26.70 7.55L26.70 7.55Q27.33 7.76 27.62 8.14L27.62 8.14L27.62 8.14Q27.92 8.53 27.92 8.97L27.92 8.97L27.92 8.97Q27.92 9.34 27.45 9.69L27.45 9.69L27.45 9.69Q26.98 10.04 26.31 10.27L26.31 10.27L26.31 10.27Q25.63 10.50 25.12 10.50L25.12 10.50ZM33.59 2.84L33.59 2.84Q34.33 2.84 34.90 3.19L34.90 3.19L34.90 3.19Q35.48 3.54 35.79 4.15L35.79 4.15L35.79 4.15Q36.11 4.76 36.11 5.52L36.11 5.52L36.11 5.52Q36.11 6.64 35.47 7.80L35.47 7.80L35.47 7.80Q34.83 8.97 33.80 9.74L33.80 9.74L33.80 9.74Q32.77 10.50 31.67 10.50L31.67 10.50L31.67 10.50Q31.19 10.50 30.72 10.12L30.72 10.12L30.72 10.12Q30.55 10.82 30.46 11.56L30.46 11.56L30.46 11.56Q30.37 12.29 30.35 12.42L30.35 12.42L30.35 12.42Q30.24 13.37 30.14 13.79L30.14 13.79L30.14 13.79Q30.03 14.21 29.81 14.21L29.81 14.21L29.81 14.21Q29.44 14.21 29.00 13.97L29.00 13.97L29.00 13.97Q28.56 13.73 28.25 13.41L28.25 13.41L28.25 13.41Q27.93 13.08 27.93 12.84L27.93 12.84L27.93 12.84Q27.93 12.57 28.17 11.66L28.17 11.66L28.17 11.66Q28.41 10.75 28.90 9.03L28.90 9.03L28.90 9.03Q29.33 7.49 29.57 6.61L29.57 6.61L29.57 6.61Q29.81 5.73 29.81 5.49L29.81 5.49L29.81 5.49Q29.81 5.38 29.69 5.26L29.69 5.26L29.69 5.26Q29.57 5.14 29.30 4.91L29.30 4.91L29.30 4.91Q29.01 4.68 28.87 4.54L28.87 4.54L28.87 4.54Q28.73 4.40 28.73 4.24L28.73 4.24L28.73 4.24Q28.73 3.95 29.00 3.56L29.00 3.56L29.00 3.56Q29.27 3.16 29.64 2.88L29.64 2.88L29.64 2.88Q30.02 2.60 30.28 2.60L30.28 2.60L30.28 2.60Q30.69 2.60 31.21 3.05L31.21 3.05L31.21 3.05Q31.72 3.50 31.95 3.95L31.95 3.95L32.49 3.02L32.49 3.02Q33.04 2.84 33.59 2.84L33.59 2.84ZM31.67 8.71L31.67 8.71Q32.12 8.71 32.65 8.24L32.65 8.24L32.65 8.24Q33.18 7.77 33.54 7.08L33.54 7.08L33.54 7.08Q33.91 6.38 33.91 5.75L33.91 5.75L33.91 5.75Q33.91 5.29 33.68 5.04L33.68 5.04L33.68 5.04Q33.46 4.79 33.04 4.79L33.04 4.79L33.04 4.79Q32.55 4.79 32.15 5.34L32.15 5.34L32.15 5.34Q31.75 5.89 31.52 6.69L31.52 6.69L31.52 6.69Q31.29 7.49 31.29 8.16L31.29 8.16L31.29 8.16Q31.29 8.43 31.39 8.57L31.39 8.57L31.39 8.57Q31.50 8.71 31.67 8.71L31.67 8.71ZM41.10-0.80L41.10-0.80Q41.93-0.84 42.41-0.38L42.41-0.38L42.41-0.38Q42.88 0.08 42.84 0.81L42.84 0.81L42.84 0.81Q41.23 2.14 40.24 3.85L40.24 3.85L40.24 3.85Q39.24 5.56 38.84 7.42L38.84 7.42L38.84 7.42Q39.12 8.67 39.67 9.38L39.67 9.38L39.67 9.38Q40.22 10.09 41.31 10.75L41.31 10.75L41.31 10.75Q41.33 10.84 41.33 10.99L41.33 10.99L41.33 10.99Q41.33 11.52 40.98 11.90L40.98 11.90L40.98 11.90Q40.64 12.28 40.10 12.28L40.10 12.28L40.10 12.28Q39.34 12.28 38.65 11.49L38.65 11.49L38.65 11.49Q37.97 10.70 37.55 9.52L37.55 9.52L37.55 9.52Q37.13 8.34 37.13 7.27L37.13 7.27L37.13 7.27Q37.13 6.17 37.67 4.65L37.67 4.65L37.67 4.65Q38.22 3.12 39.14 1.64L39.14 1.64L39.14 1.64Q40.05 0.15 41.10-0.80L41.10-0.80ZM49.45 0.70L49.45 0.70Q49.71 0.85 49.85 1.13L49.85 1.13L49.85 1.13Q49.98 1.40 49.98 1.72L49.98 1.72L49.98 1.72Q49.98 2.00 49.87 2.28L49.87 2.28L49.87 2.28Q49.76 2.56 49.57 2.74L49.57 2.74L49.57 2.74Q47.77 2.77 46.56 2.88L46.56 2.88L46.56 2.88Q46.33 3.74 46.12 4.79L46.12 4.79L46.12 4.79Q47.52 4.68 48.48 4.45L48.48 4.45L48.48 4.45Q48.76 4.62 48.91 4.89L48.91 4.89L48.91 4.89Q49.06 5.17 49.06 5.49L49.06 5.49L49.06 5.49Q49.06 5.78 48.94 6.04L48.94 6.04L48.94 6.04Q48.82 6.30 48.61 6.45L48.61 6.45L48.61 6.45Q48.34 6.48 48.09 6.50L48.09 6.50L48.09 6.50Q47.84 6.51 47.60 6.52L47.60 6.52L45.79 6.65L45.54 7.91L45.40 8.58L45.40 8.58Q46.26 8.50 46.95 8.35L46.95 8.35L46.95 8.35Q47.64 8.20 48.41 7.94L48.41 7.94L48.41 7.94Q48.80 8.12 49.02 8.45L49.02 8.45L49.02 8.45Q49.24 8.78 49.24 9.17L49.24 9.17L49.24 9.17Q49.24 9.73 48.80 10.16L48.80 10.16L48.80 10.16Q47.94 10.33 46.86 10.42L46.86 10.42L46.86 10.42Q45.78 10.50 44.86 10.50L44.86 10.50L44.86 10.50Q44.60 10.50 44.20 10.25L44.20 10.25L44.20 10.25Q43.79 10.00 43.48 9.66L43.48 9.66L43.48 9.66Q43.16 9.32 43.16 9.09L43.16 9.09L43.16 9.09Q43.16 8.88 43.48 7.46L43.48 7.46L43.48 7.46Q43.72 6.43 43.95 5.31L43.95 5.31L43.95 5.31Q44.10 4.54 44.10 4.54L44.10 4.54L44.10 4.54Q44.32 3.44 44.39 2.95L44.39 2.95L43.81 3.00L43.81 3.00Q43.54 2.86 43.38 2.58L43.38 2.58L43.38 2.58Q43.22 2.31 43.22 1.99L43.22 1.99L43.22 1.99Q43.22 1.43 43.65 0.99L43.65 0.99L43.65 0.99Q45.57 0.97 46.99 0.91L46.99 0.91L46.99 0.91Q48.41 0.85 49.45 0.70L49.45 0.70ZM56.57 0.95L56.57 0.95Q56.81 1.05 57.05 1.40L57.05 1.40L57.05 1.40Q57.29 1.75 57.44 2.16L57.44 2.16L57.44 2.16Q57.60 2.58 57.60 2.83L57.60 2.83L57.60 2.83Q57.60 2.93 57.58 2.97L57.58 2.97L57.58 2.97Q57.37 3.54 55.78 5.35L55.78 5.35L55.78 5.35Q54.19 7.15 52.67 8.61L52.67 8.61L52.67 8.61Q54.36 8.29 56.36 7.99L56.36 7.99L56.36 7.99Q56.69 8.13 56.87 8.49L56.87 8.49L56.87 8.49Q57.05 8.85 57.05 9.27L57.05 9.27L57.05 9.27Q57.05 9.94 56.64 10.36L56.64 10.36L56.64 10.36Q54.12 10.49 52.79 10.49L52.79 10.49L52.79 10.49Q51.24 10.49 51.06 10.35L51.06 10.35L51.06 10.35Q50.75 10.08 50.46 9.46L50.46 9.46L50.46 9.46Q50.16 8.83 50.16 8.44L50.16 8.44L50.16 8.44Q50.16 8.36 50.19 8.27L50.19 8.27L50.19 8.27Q50.26 8.05 50.97 7.30L50.97 7.30L50.97 7.30Q51.69 6.55 53.07 5.17L53.07 5.17L53.07 5.17Q54.84 3.40 55.37 2.81L55.37 2.81L53.76 2.95L51.81 3.14L51.81 3.14Q51.52 2.98 51.35 2.65L51.35 2.65L51.35 2.65Q51.18 2.31 51.18 1.93L51.18 1.93L51.18 1.93Q51.18 1.62 51.32 1.33L51.32 1.33L51.32 1.33Q51.45 1.04 51.70 0.83L51.70 0.83L51.70 0.83Q52.18 0.81 53.42 0.81L53.42 0.81L53.42 0.81Q56.28 0.81 56.57 0.95L56.57 0.95ZM59.01 12.32L59.01 12.32Q58.93 12.33 58.76 12.33L58.76 12.33L58.76 12.33Q58.04 12.33 57.61 11.91L57.61 11.91L57.61 11.91Q57.18 11.48 57.18 10.82L57.18 10.82L57.18 10.82Q58.70 9.39 59.60 7.63L59.60 7.63L59.60 7.63Q60.49 5.87 60.80 3.99L60.80 3.99L60.80 3.99Q60.44 2.76 59.86 2.06L59.86 2.06L59.86 2.06Q59.29 1.36 58.18 0.77L58.18 0.77L58.18 0.77Q58.14 0.60 58.14 0.43L58.14 0.43L58.14 0.43Q58.14-0.07 58.45-0.43L58.45-0.43L58.45-0.43Q58.76-0.80 59.28-0.80L59.28-0.80L59.28-0.80Q60.06-0.80 60.82 0.01L60.82 0.01L60.82 0.01Q61.57 0.81 62.05 2.01L62.05 2.01L62.05 2.01Q62.52 3.21 62.52 4.28L62.52 4.28L62.52 4.28Q62.52 5.40 62.05 6.92L62.05 6.92L62.05 6.92Q61.57 8.43 60.77 9.88L60.77 9.88L60.77 9.88Q59.96 11.34 59.01 12.32L59.01 12.32Z"></path></g><!----><g data-v-423bf9ae="" id="1807c5f1-a3ac-40fc-b164-7ba85b3f3253" transform="matrix(1.1651239148150896,0,0,1.1651239148150896,-5.256213519134526,-12.878614754915162)" stroke="none" fill="white"><path d="M73.86 23.383a20 20 0 0 0-2.657.187C66.736 15.92 59.307 11.377 51.2 11.377c-8.282 0-15.787 4.687-20.224 12.583a20.972 20.972 0 0 0-4.837-.577C14.483 23.383 5 32.867 5 44.523c0 11.657 9.483 21.141 21.14 21.141.232 0 .473-.007.726-.018v21.6c0 .76.615 1.376 1.376 1.376H73.86c.76 0 1.376-.616 1.376-1.376V65.613a21.118 21.118 0 0 0 18.099-12.865A20.974 20.974 0 0 0 95 44.523c0-11.656-9.483-21.14-21.14-21.14zm-1.376 62.488H29.617V65.779a22.645 22.645 0 0 0 8.998-3.382 24.488 24.488 0 0 0 5.112 2.393 19.876 19.876 0 0 0 7.491 1.471c2.761 0 5.393-.574 7.788-1.593a24.525 24.525 0 0 0 3.543-1.563 23.137 23.137 0 0 0 9.936 2.903v19.863zm18.317-34.197c-2.795 6.598-9.337 11.238-16.941 11.238-3.109 0-6.12-.783-8.815-2.261a18.832 18.832 0 0 0 5.366-10.204 1.377 1.377 0 0 0-2.711-.474c-.635 3.633-2.474 6.794-5.066 9.152l-.035-.024-.959.623c-3.188 2.074-6.799 3.17-10.438 3.17-4.125 0-8.133-1.372-11.591-3.966l-.164-.123a16.086 16.086 0 0 1-4.709-8.833 1.375 1.375 0 1 0-2.711.474 18.796 18.796 0 0 0 4.474 9.251 18.144 18.144 0 0 1-8.258 3.081h-.001c-.303.034-.607.065-.914.084a16.1 16.1 0 0 1-1.186.049c-10.139 0-18.388-8.249-18.388-18.389 0-10.139 8.25-18.388 18.388-18.388 1.614 0 3.264.23 4.901.683l1.336.369.645-1.227c3.894-7.408 10.69-11.83 18.179-11.83 7.308 0 14.018 4.26 17.948 11.394l.583 1.06 1.196-.191a18.452 18.452 0 0 1 2.933-.257c10.139 0 18.388 8.249 18.388 18.388a18.339 18.339 0 0 1-1.45 7.151z"></path></g><!----></svg>